<?xml version="1.0" encoding="UTF-8" standalone="no"?>
<svg
   xmlns:dc="http://purl.org/dc/elements/1.1/"
   xmlns:cc="http://creativecommons.org/ns#"
   xmlns:rdf="http://www.w3.org/1999/02/22-rdf-syntax-ns#"
   xmlns:svg="http://www.w3.org/2000/svg"
   xmlns="http://www.w3.org/2000/svg"
   xmlns:xlink="http://www.w3.org/1999/xlink"
   xmlns:sodipodi="http://sodipodi.sourceforge.net/DTD/sodipodi-0.dtd"
   xmlns:inkscape="http://www.inkscape.org/namespaces/inkscape"
   width="581.55603"
   height="313.108"
   viewBox="0 0 436.16702 234.831"
   version="1.1"
   id="svg378"
   sodipodi:docname="featureImportances.svg"
   inkscape:version="1.0.2 (1.0.2+r75+1)">
  <sodipodi:namedview
     pagecolor="#ffffff"
     bordercolor="#666666"
     borderopacity="1"
     objecttolerance="10"
     gridtolerance="10"
     guidetolerance="10"
     inkscape:pageopacity="0"
     inkscape:pageshadow="2"
     inkscape:window-width="1853"
     inkscape:window-height="1025"
     id="namedview380"
     showgrid="false"
     units="px"
     fit-margin-top="2"
     fit-margin-left="2"
     fit-margin-right="2"
     fit-margin-bottom="2"
     inkscape:zoom="1.2409339"
     inkscape:cx="290"
     inkscape:cy="194"
     inkscape:window-x="67"
     inkscape:window-y="27"
     inkscape:window-maximized="1"
     inkscape:current-layer="figure_1"
     inkscape:document-rotation="0" />
  <metadata
     id="metadata2">
    <rdf:RDF>
      <cc:Work>
        <dc:type
           rdf:resource="http://purl.org/dc/dcmitype/StillImage" />
        <dc:date>2022-09-14T16:08:08.206348</dc:date>
        <dc:format>image/svg+xml</dc:format>
        <dc:creator>
          <cc:Agent>
            <dc:title>Matplotlib v3.5.1, https://matplotlib.org/</dc:title>
          </cc:Agent>
        </dc:creator>
        <dc:title></dc:title>
      </cc:Work>
    </rdf:RDF>
  </metadata>
  <defs
     id="defs6">
    <style
       type="text/css"
       id="style4">*{stroke-linejoin: round; stroke-linecap: butt}</style>
  </defs>
  <g
     id="figure_1"
     transform="translate(45.467187,1.5)">
    <rect
       style="fill:#ffffff;fill-rule:evenodd;stroke-width:0.747716"
       id="rect235"
       width="436.16702"
       height="234.83099"
       x="-45.467186"
       y="-1.5" />
    <g
       id="patch_1">
      <path
         d="M 0,288 H 432 V 0 H 0 Z"
         style="fill:none"
         id="path8" />
    </g>
    <g
       id="axes_1"
       transform="translate(0,-34.16)">
      <g
         id="patch_2">
        <path
           d="M 54,252 H 388.8 V 34.56 H 54 Z"
           style="fill:#ffffff"
           id="path11" />
      </g>
      <g
         id="patch_3">
        <path
           d="m 54,244.23429 h 8.422994 V 228.70286 H 54 Z"
           clip-path="url(#pb81d69a211)"
           style="fill:#1f77b4"
           id="path14" />
      </g>
      <g
         id="patch_4">
        <path
           d="M 54,213.17143 H 64.100158 V 197.64 H 54 Z"
           clip-path="url(#pb81d69a211)"
           style="fill:#1f77b4"
           id="path17" />
      </g>
      <g
         id="patch_5">
        <path
           d="m 54,182.10857 h 71.83411 V 166.57714 H 54 Z"
           clip-path="url(#pb81d69a211)"
           style="fill:#1f77b4"
           id="path20" />
      </g>
      <g
         id="patch_6">
        <path
           d="M 54,151.04571 H 242.12292 V 135.51429 H 54 Z"
           clip-path="url(#pb81d69a211)"
           style="fill:#1f77b4"
           id="path23" />
      </g>
      <g
         id="patch_7">
        <path
           d="M 54,119.98286 H 258.73927 V 104.45143 H 54 Z"
           clip-path="url(#pb81d69a211)"
           style="fill:#1f77b4"
           id="path26" />
      </g>
      <g
         id="patch_8">
        <path
           d="M 54,88.92 H 347.70979 V 73.388571 H 54 Z"
           clip-path="url(#pb81d69a211)"
           style="fill:#1f77b4"
           id="path29" />
      </g>
      <g
         id="patch_9">
        <path
           d="M 54,57.857143 H 372.85714 V 42.325714 H 54 Z"
           clip-path="url(#pb81d69a211)"
           style="fill:#1f77b4"
           id="path32" />
      </g>
      <g
         id="matplotlib.axis_1">
        <g
           id="xtick_1">
          <g
             id="line2d_1">
            <defs
               id="defs36">
              <path
                 id="m5f5d16c504"
                 d="M 0,0 V 3.5"
                 style="stroke:#000000;stroke-width:0.8" />
            </defs>
            <g
               id="g40">
              <use
                 xlink:href="#m5f5d16c504"
                 x="54"
                 y="252"
                 style="stroke:#000000;stroke-width:0.8"
                 id="use38"
                 width="100%"
                 height="100%" />
            </g>
          </g>
          <g
             id="text_1">
            <!-- 0 -->
            <g
               transform="matrix(0.1,0,0,-0.1,50.81875,266.59844)"
               id="g48">
              <defs
                 id="defs44">
                <path
                   id="DejaVuSans-30"
                   d="m 2034,4250 q -487,0 -733,-480 -245,-479 -245,-1442 0,-959 245,-1439 246,-480 733,-480 491,0 736,480 246,480 246,1439 0,963 -246,1442 -245,480 -736,480 z m 0,500 q 785,0 1199,-621 414,-620 414,-1801 0,-1178 -414,-1799 -414,-620 -1199,-620 -784,0 -1198,620 -414,621 -414,1799 0,1181 414,1801 414,621 1198,621 z"
                   transform="scale(0.015625)" />
              </defs>
              <use
                 xlink:href="#DejaVuSans-30"
                 id="use46"
                 x="0"
                 y="0"
                 width="100%"
                 height="100%" />
            </g>
          </g>
        </g>
        <g
           id="xtick_2">
          <g
             id="line2d_2">
            <g
               id="g54">
              <use
                 xlink:href="#m5f5d16c504"
                 x="108.78932"
                 y="252"
                 style="stroke:#000000;stroke-width:0.8"
                 id="use52"
                 width="100%"
                 height="100%" />
            </g>
          </g>
          <g
             id="text_2">
            <!-- 5 -->
            <g
               transform="matrix(0.1,0,0,-0.1,105.60807,266.59844)"
               id="g62">
              <defs
                 id="defs58">
                <path
                   id="DejaVuSans-35"
                   d="M 691,4666 H 3169 V 4134 H 1269 V 2991 q 137,47 274,70 138,23 276,23 781,0 1237,-428 457,-428 457,-1159 Q 3513,744 3044,326 2575,-91 1722,-91 1428,-91 1123,-41 819,9 494,109 v 635 q 281,-153 581,-228 300,-75 634,-75 541,0 856,284 316,284 316,772 0,487 -316,771 -315,285 -856,285 -253,0 -505,-56 -251,-56 -513,-175 z"
                   transform="scale(0.015625)" />
              </defs>
              <use
                 xlink:href="#DejaVuSans-35"
                 id="use60"
                 x="0"
                 y="0"
                 width="100%"
                 height="100%" />
            </g>
          </g>
        </g>
        <g
           id="xtick_3">
          <g
             id="line2d_3">
            <g
               id="g68">
              <use
                 xlink:href="#m5f5d16c504"
                 x="163.57864"
                 y="252"
                 style="stroke:#000000;stroke-width:0.8"
                 id="use66"
                 width="100%"
                 height="100%" />
            </g>
          </g>
          <g
             id="text_3">
            <!-- 10 -->
            <g
               transform="matrix(0.1,0,0,-0.1,157.21614,266.59844)"
               id="g78">
              <defs
                 id="defs72">
                <path
                   id="DejaVuSans-31"
                   d="M 794,531 H 1825 V 4091 L 703,3866 v 575 l 1116,225 h 631 V 531 H 3481 V 0 H 794 Z"
                   transform="scale(0.015625)" />
              </defs>
              <use
                 xlink:href="#DejaVuSans-31"
                 id="use74"
                 x="0"
                 y="0"
                 width="100%"
                 height="100%" />
              <use
                 xlink:href="#DejaVuSans-30"
                 x="63.623047"
                 id="use76"
                 y="0"
                 width="100%"
                 height="100%" />
            </g>
          </g>
        </g>
        <g
           id="xtick_4">
          <g
             id="line2d_4">
            <g
               id="g84">
              <use
                 xlink:href="#m5f5d16c504"
                 x="218.36795"
                 y="252"
                 style="stroke:#000000;stroke-width:0.8"
                 id="use82"
                 width="100%"
                 height="100%" />
            </g>
          </g>
          <g
             id="text_4">
            <!-- 15 -->
            <g
               transform="matrix(0.1,0,0,-0.1,212.00546,266.59844)"
               id="g91">
              <use
                 xlink:href="#DejaVuSans-31"
                 id="use87"
                 x="0"
                 y="0"
                 width="100%"
                 height="100%" />
              <use
                 xlink:href="#DejaVuSans-35"
                 x="63.623047"
                 id="use89"
                 y="0"
                 width="100%"
                 height="100%" />
            </g>
          </g>
        </g>
        <g
           id="xtick_5">
          <g
             id="line2d_5">
            <g
               id="g97">
              <use
                 xlink:href="#m5f5d16c504"
                 x="273.15729"
                 y="252"
                 style="stroke:#000000;stroke-width:0.8"
                 id="use95"
                 width="100%"
                 height="100%" />
            </g>
          </g>
          <g
             id="text_5">
            <!-- 20 -->
            <g
               transform="matrix(0.1,0,0,-0.1,266.79478,266.59844)"
               id="g107">
              <defs
                 id="defs101">
                <path
                   id="DejaVuSans-32"
                   d="M 1228,531 H 3431 V 0 H 469 v 531 q 359,372 979,998 621,627 780,809 303,340 423,576 121,236 121,464 0,372 -261,606 -261,235 -680,235 -297,0 -627,-103 -329,-103 -704,-313 v 638 q 381,153 712,231 332,78 607,78 725,0 1156,-363 431,-362 431,-968 0,-288 -108,-546 -107,-257 -392,-607 -78,-91 -497,-524 Q 1991,1309 1228,531 Z"
                   transform="scale(0.015625)" />
              </defs>
              <use
                 xlink:href="#DejaVuSans-32"
                 id="use103"
                 x="0"
                 y="0"
                 width="100%"
                 height="100%" />
              <use
                 xlink:href="#DejaVuSans-30"
                 x="63.623047"
                 id="use105"
                 y="0"
                 width="100%"
                 height="100%" />
            </g>
          </g>
        </g>
        <g
           id="xtick_6">
          <g
             id="line2d_6">
            <g
               id="g113">
              <use
                 xlink:href="#m5f5d16c504"
                 x="327.94659"
                 y="252"
                 style="stroke:#000000;stroke-width:0.8"
                 id="use111"
                 width="100%"
                 height="100%" />
            </g>
          </g>
          <g
             id="text_6">
            <!-- 25 -->
            <g
               transform="matrix(0.1,0,0,-0.1,321.5841,266.59844)"
               id="g120">
              <use
                 xlink:href="#DejaVuSans-32"
                 id="use116"
                 x="0"
                 y="0"
                 width="100%"
                 height="100%" />
              <use
                 xlink:href="#DejaVuSans-35"
                 x="63.623047"
                 id="use118"
                 y="0"
                 width="100%"
                 height="100%" />
            </g>
          </g>
        </g>
        <g
           id="xtick_7">
          <g
             id="line2d_7">
            <g
               id="g126">
              <use
                 xlink:href="#m5f5d16c504"
                 x="382.7359"
                 y="252"
                 style="stroke:#000000;stroke-width:0.8"
                 id="use124"
                 width="100%"
                 height="100%" />
            </g>
          </g>
          <g
             id="text_7">
            <!-- 30 -->
            <g
               transform="matrix(0.1,0,0,-0.1,376.37342,266.59844)"
               id="g136">
              <defs
                 id="defs130">
                <path
                   id="DejaVuSans-33"
                   d="m 2597,2516 q 453,-97 707,-404 255,-306 255,-756 0,-690 -475,-1069 -475,-378 -1350,-378 -293,0 -604,58 -311,58 -642,174 v 609 q 262,-153 574,-231 313,-78 654,-78 593,0 904,234 311,234 311,681 0,413 -289,645 -289,233 -804,233 h -544 v 519 h 569 q 465,0 712,186 247,186 247,536 0,359 -255,551 -254,193 -729,193 -260,0 -557,-57 -297,-56 -653,-174 v 562 q 360,100 674,150 314,50 592,50 719,0 1137,-327 419,-326 419,-882 0,-388 -222,-655 -222,-267 -631,-370 z"
                   transform="scale(0.015625)" />
              </defs>
              <use
                 xlink:href="#DejaVuSans-33"
                 id="use132"
                 x="0"
                 y="0"
                 width="100%"
                 height="100%" />
              <use
                 xlink:href="#DejaVuSans-30"
                 x="63.623047"
                 id="use134"
                 y="0"
                 width="100%"
                 height="100%" />
            </g>
          </g>
        </g>
      </g>
      <g
         id="matplotlib.axis_2">
        <g
           id="ytick_1">
          <g
             id="line2d_8">
            <defs
               id="defs142">
              <path
                 id="maf780de1cb"
                 d="M 0,0 H -3.5"
                 style="stroke:#000000;stroke-width:0.8" />
            </defs>
            <g
               id="g146">
              <use
                 xlink:href="#maf780de1cb"
                 x="54"
                 y="236.46857"
                 style="stroke:#000000;stroke-width:0.8"
                 id="use144"
                 width="100%"
                 height="100%" />
            </g>
          </g>
          <g
             id="text_8">
            <!-- day -->
            <g
               transform="matrix(0.1,0,0,-0.1,28.604688,240.26779)"
               id="g160">
              <defs
                 id="defs152">
                <path
                   id="DejaVuSans-64"
                   d="m 2906,2969 v 1894 h 575 V 0 H 2906 V 525 Q 2725,213 2448,61 2172,-91 1784,-91 1150,-91 751,415 353,922 353,1747 q 0,825 398,1331 399,506 1033,506 388,0 664,-152 277,-151 458,-463 z M 947,1747 q 0,-634 261,-995 261,-361 717,-361 456,0 718,361 263,361 263,995 0,634 -263,995 -262,361 -718,361 -456,0 -717,-361 -261,-361 -261,-995 z"
                   transform="scale(0.015625)" />
                <path
                   id="DejaVuSans-61"
                   d="m 2194,1759 q -697,0 -966,-159 -269,-159 -269,-544 0,-306 202,-486 202,-179 548,-179 479,0 768,339 289,339 289,901 v 128 z m 1147,238 V 0 H 2766 V 531 Q 2569,213 2275,61 1981,-91 1556,-91 q -537,0 -855,302 -317,302 -317,808 0,590 395,890 396,300 1180,300 h 807 v 57 q 0,397 -261,614 -261,217 -733,217 -300,0 -585,-72 -284,-72 -546,-216 v 532 q 315,122 612,182 297,61 578,61 760,0 1135,-394 375,-393 375,-1193 z"
                   transform="scale(0.015625)" />
                <path
                   id="DejaVuSans-79"
                   d="m 2059,-325 q -243,-625 -475,-815 -231,-191 -618,-191 H 506 v 481 h 338 q 237,0 368,113 132,112 291,531 L 1606,56 191,3500 H 800 L 1894,763 2988,3500 h 609 z"
                   transform="scale(0.015625)" />
              </defs>
              <use
                 xlink:href="#DejaVuSans-64"
                 id="use154"
                 x="0"
                 y="0"
                 width="100%"
                 height="100%" />
              <use
                 xlink:href="#DejaVuSans-61"
                 x="63.476562"
                 id="use156"
                 y="0"
                 width="100%"
                 height="100%" />
              <use
                 xlink:href="#DejaVuSans-79"
                 x="124.75586"
                 id="use158"
                 y="0"
                 width="100%"
                 height="100%" />
            </g>
          </g>
        </g>
        <g
           id="ytick_2">
          <g
             id="line2d_9">
            <g
               id="g166">
              <use
                 xlink:href="#maf780de1cb"
                 x="54"
                 y="205.40572"
                 style="stroke:#000000;stroke-width:0.8"
                 id="use164"
                 width="100%"
                 height="100%" />
            </g>
          </g>
          <g
             id="text_9">
            <!-- age -->
            <g
               transform="matrix(0.1,0,0,-0.1,28.370313,209.20493)"
               id="g179">
              <defs
                 id="defs171">
                <path
                   id="DejaVuSans-67"
                   d="m 2906,1791 q 0,625 -258,968 -257,344 -723,344 -462,0 -720,-344 -258,-343 -258,-968 0,-622 258,-966 258,-344 720,-344 466,0 723,344 258,344 258,966 z M 3481,434 q 0,-893 -397,-1329 -396,-436 -1215,-436 -303,0 -572,45 -269,45 -522,139 v 559 q 253,-137 500,-202 247,-66 503,-66 566,0 847,295 281,295 281,892 V 616 Q 2728,306 2450,153 2172,0 1784,0 1141,0 747,490 353,981 353,1791 q 0,812 394,1302 394,491 1037,491 388,0 666,-153 278,-153 456,-462 v 531 h 575 z"
                   transform="scale(0.015625)" />
                <path
                   id="DejaVuSans-65"
                   d="M 3597,1894 V 1613 H 953 q 38,-594 358,-905 320,-311 892,-311 331,0 642,81 311,81 618,244 V 178 Q 3153,47 2828,-22 2503,-91 2169,-91 1331,-91 842,396 353,884 353,1716 q 0,859 464,1363 464,505 1252,505 706,0 1117,-455 411,-454 411,-1235 z m -575,169 q -6,471 -264,752 -258,282 -683,282 -481,0 -770,-272 -289,-272 -333,-766 z"
                   transform="scale(0.015625)" />
              </defs>
              <use
                 xlink:href="#DejaVuSans-61"
                 id="use173"
                 x="0"
                 y="0"
                 width="100%"
                 height="100%" />
              <use
                 xlink:href="#DejaVuSans-67"
                 x="61.279297"
                 id="use175"
                 y="0"
                 width="100%"
                 height="100%" />
              <use
                 xlink:href="#DejaVuSans-65"
                 x="124.75586"
                 id="use177"
                 y="0"
                 width="100%"
                 height="100%" />
            </g>
          </g>
        </g>
        <g
           id="ytick_3">
          <g
             id="line2d_10">
            <g
               id="g185">
              <use
                 xlink:href="#maf780de1cb"
                 x="54"
                 y="174.34285"
                 style="stroke:#000000;stroke-width:0.8"
                 id="use183"
                 width="100%"
                 height="100%" />
            </g>
          </g>
          <g
             id="text_10">
            <!-- priority -->
            <g
               transform="matrix(0.1,0,0,-0.1,10.915625,178.14208)"
               id="g211">
              <defs
                 id="defs193">
                <path
                   id="DejaVuSans-70"
                   d="M 1159,525 V -1331 H 581 v 4831 h 578 v -531 q 182,312 458,463 277,152 661,152 638,0 1036,-506 399,-506 399,-1331 0,-825 -399,-1332 -398,-506 -1036,-506 -384,0 -661,152 -276,152 -458,464 z m 1957,1222 q 0,634 -261,995 -261,361 -717,361 -457,0 -718,-361 -261,-361 -261,-995 0,-634 261,-995 261,-361 718,-361 456,0 717,361 261,361 261,995 z"
                   transform="scale(0.015625)" />
                <path
                   id="DejaVuSans-72"
                   d="m 2631,2963 q -97,56 -211,82 -114,27 -251,27 -488,0 -749,-317 -261,-317 -261,-911 V 0 H 581 v 3500 h 578 v -544 q 182,319 472,473 291,155 707,155 59,0 131,-8 72,-7 159,-23 z"
                   transform="scale(0.015625)" />
                <path
                   id="DejaVuSans-69"
                   d="m 603,3500 h 575 V 0 H 603 Z m 0,1363 h 575 V 4134 H 603 Z"
                   transform="scale(0.015625)" />
                <path
                   id="DejaVuSans-6f"
                   d="m 1959,3097 q -462,0 -731,-361 -269,-361 -269,-989 0,-628 267,-989 268,-361 733,-361 460,0 728,362 269,363 269,988 0,622 -269,986 -268,364 -728,364 z m 0,487 q 750,0 1178,-488 429,-487 429,-1349 Q 3566,888 3137,398 2709,-91 1959,-91 1206,-91 779,398 353,888 353,1747 q 0,862 426,1349 427,488 1180,488 z"
                   transform="scale(0.015625)" />
                <path
                   id="DejaVuSans-74"
                   d="M 1172,4494 V 3500 H 2356 V 3053 H 1172 V 1153 q 0,-428 117,-550 117,-122 477,-122 h 590 V 0 H 1766 Q 1100,0 847,248 594,497 594,1153 V 3053 H 172 v 447 h 422 v 994 z"
                   transform="scale(0.015625)" />
              </defs>
              <use
                 xlink:href="#DejaVuSans-70"
                 id="use195"
                 x="0"
                 y="0"
                 width="100%"
                 height="100%" />
              <use
                 xlink:href="#DejaVuSans-72"
                 x="63.476562"
                 id="use197"
                 y="0"
                 width="100%"
                 height="100%" />
              <use
                 xlink:href="#DejaVuSans-69"
                 x="104.58984"
                 id="use199"
                 y="0"
                 width="100%"
                 height="100%" />
              <use
                 xlink:href="#DejaVuSans-6f"
                 x="132.37305"
                 id="use201"
                 y="0"
                 width="100%"
                 height="100%" />
              <use
                 xlink:href="#DejaVuSans-72"
                 x="193.55469"
                 id="use203"
                 y="0"
                 width="100%"
                 height="100%" />
              <use
                 xlink:href="#DejaVuSans-69"
                 x="234.66797"
                 id="use205"
                 y="0"
                 width="100%"
                 height="100%" />
              <use
                 xlink:href="#DejaVuSans-74"
                 x="262.45117"
                 id="use207"
                 y="0"
                 width="100%"
                 height="100%" />
              <use
                 xlink:href="#DejaVuSans-79"
                 x="301.66016"
                 id="use209"
                 y="0"
                 width="100%"
                 height="100%" />
            </g>
          </g>
        </g>
        <g
           id="ytick_4">
          <g
             id="line2d_11">
            <g
               id="g217">
              <use
                 xlink:href="#maf780de1cb"
                 x="54"
                 y="143.28"
                 style="stroke:#000000;stroke-width:0.8"
                 id="use215"
                 width="100%"
                 height="100%" />
            </g>
          </g>
          <g
             id="text_11">
            <!-- firstAppointment -->
            <g
               transform="matrix(0.1,0,0,-0.1,-37.382812,147.07922)"
               id="g259">
              <defs
                 id="defs225">
                <path
                   id="DejaVuSans-66"
                   d="m 2375,4863 v -479 h -550 q -309,0 -430,-125 -120,-125 -120,-450 v -309 h 947 V 3053 H 1275 V 0 H 697 V 3053 H 147 v 447 h 550 v 244 q 0,584 272,851 272,268 862,268 z"
                   transform="scale(0.015625)" />
                <path
                   id="DejaVuSans-73"
                   d="m 2834,3397 v -544 q -243,125 -506,187 -262,63 -544,63 -428,0 -642,-131 -214,-131 -214,-394 0,-200 153,-314 153,-114 616,-217 l 197,-44 q 612,-131 870,-370 258,-239 258,-667 0,-488 -386,-773 Q 2250,-91 1575,-91 1294,-91 989,-36 684,19 347,128 v 594 q 319,-166 628,-249 309,-82 613,-82 406,0 624,139 219,139 219,392 0,234 -158,359 -157,125 -692,241 l -200,47 q -534,112 -772,345 -237,233 -237,639 0,494 350,762 350,269 994,269 318,0 599,-47 282,-46 519,-140 z"
                   transform="scale(0.015625)" />
                <path
                   id="DejaVuSans-41"
                   d="M 2188,4044 1331,1722 h 1716 z m -357,622 h 716 L 4325,0 H 3669 L 3244,1197 H 1141 L 716,0 H 50 Z"
                   transform="scale(0.015625)" />
                <path
                   id="DejaVuSans-6e"
                   d="M 3513,2113 V 0 h -575 v 2094 q 0,497 -194,743 -194,247 -581,247 -466,0 -735,-297 -269,-296 -269,-809 V 0 H 581 v 3500 h 578 v -544 q 207,316 486,472 280,156 646,156 603,0 912,-373 310,-373 310,-1098 z"
                   transform="scale(0.015625)" />
                <path
                   id="DejaVuSans-6d"
                   d="m 3328,2828 q 216,388 516,572 300,184 706,184 547,0 844,-383 297,-382 297,-1088 V 0 h -578 v 2094 q 0,503 -179,746 -178,244 -543,244 -447,0 -707,-297 -259,-296 -259,-809 V 0 h -578 v 2094 q 0,506 -178,748 -178,242 -550,242 -441,0 -701,-298 -259,-298 -259,-808 V 0 H 581 v 3500 h 578 v -544 q 197,322 472,475 275,153 653,153 382,0 649,-194 267,-193 395,-562 z"
                   transform="scale(0.015625)" />
              </defs>
              <use
                 xlink:href="#DejaVuSans-66"
                 id="use227"
                 x="0"
                 y="0"
                 width="100%"
                 height="100%" />
              <use
                 xlink:href="#DejaVuSans-69"
                 x="35.205078"
                 id="use229"
                 y="0"
                 width="100%"
                 height="100%" />
              <use
                 xlink:href="#DejaVuSans-72"
                 x="62.988281"
                 id="use231"
                 y="0"
                 width="100%"
                 height="100%" />
              <use
                 xlink:href="#DejaVuSans-73"
                 x="104.10156"
                 id="use233"
                 y="0"
                 width="100%"
                 height="100%" />
              <use
                 xlink:href="#DejaVuSans-74"
                 x="156.20117"
                 id="use235"
                 y="0"
                 width="100%"
                 height="100%" />
              <use
                 xlink:href="#DejaVuSans-41"
                 x="195.41016"
                 id="use237"
                 y="0"
                 width="100%"
                 height="100%" />
              <use
                 xlink:href="#DejaVuSans-70"
                 x="263.81836"
                 id="use239"
                 y="0"
                 width="100%"
                 height="100%" />
              <use
                 xlink:href="#DejaVuSans-70"
                 x="327.29492"
                 id="use241"
                 y="0"
                 width="100%"
                 height="100%" />
              <use
                 xlink:href="#DejaVuSans-6f"
                 x="390.77148"
                 id="use243"
                 y="0"
                 width="100%"
                 height="100%" />
              <use
                 xlink:href="#DejaVuSans-69"
                 x="451.95312"
                 id="use245"
                 y="0"
                 width="100%"
                 height="100%" />
              <use
                 xlink:href="#DejaVuSans-6e"
                 x="479.73633"
                 id="use247"
                 y="0"
                 width="100%"
                 height="100%" />
              <use
                 xlink:href="#DejaVuSans-74"
                 x="543.11523"
                 id="use249"
                 y="0"
                 width="100%"
                 height="100%" />
              <use
                 xlink:href="#DejaVuSans-6d"
                 x="582.32422"
                 id="use251"
                 y="0"
                 width="100%"
                 height="100%" />
              <use
                 xlink:href="#DejaVuSans-65"
                 x="679.73633"
                 id="use253"
                 y="0"
                 width="100%"
                 height="100%" />
              <use
                 xlink:href="#DejaVuSans-6e"
                 x="741.25977"
                 id="use255"
                 y="0"
                 width="100%"
                 height="100%" />
              <use
                 xlink:href="#DejaVuSans-74"
                 x="804.63867"
                 id="use257"
                 y="0"
                 width="100%"
                 height="100%" />
            </g>
          </g>
        </g>
        <g
           id="ytick_5">
          <g
             id="line2d_12">
            <g
               id="g265">
              <use
                 xlink:href="#maf780de1cb"
                 x="54"
                 y="112.21714"
                 style="stroke:#000000;stroke-width:0.8"
                 id="use263"
                 width="100%"
                 height="100%" />
            </g>
          </g>
          <g
             id="text_12">
            <!-- consultationMedia -->
            <g
               transform="matrix(0.1,0,0,-0.1,-44.51875,116.01636)"
               id="g308">
              <defs
                 id="defs272">
                <path
                   id="DejaVuSans-63"
                   d="m 3122,3366 v -538 q -244,135 -489,202 -245,67 -495,67 -560,0 -870,-355 -309,-354 -309,-995 0,-641 309,-996 310,-354 870,-354 250,0 495,67 245,67 489,202 V 134 Q 2881,22 2623,-34 2366,-91 2075,-91 1284,-91 818,406 353,903 353,1747 q 0,856 470,1346 471,491 1290,491 265,0 518,-55 253,-54 491,-163 z"
                   transform="scale(0.015625)" />
                <path
                   id="DejaVuSans-75"
                   d="m 544,1381 v 2119 h 575 V 1403 q 0,-497 193,-746 194,-248 582,-248 465,0 735,297 271,297 271,810 v 1984 h 575 V 0 H 2900 V 538 Q 2691,219 2414,64 2138,-91 1772,-91 1169,-91 856,284 544,659 544,1381 Z m 1447,2203 z"
                   transform="scale(0.015625)" />
                <path
                   id="DejaVuSans-6c"
                   d="m 603,4863 h 575 V 0 H 603 Z"
                   transform="scale(0.015625)" />
                <path
                   id="DejaVuSans-4d"
                   d="m 628,4666 h 941 L 2759,1491 3956,4666 h 941 V 0 H 4281 V 4097 L 3078,897 H 2444 L 1241,4097 V 0 H 628 Z"
                   transform="scale(0.015625)" />
              </defs>
              <use
                 xlink:href="#DejaVuSans-63"
                 id="use274"
                 x="0"
                 y="0"
                 width="100%"
                 height="100%" />
              <use
                 xlink:href="#DejaVuSans-6f"
                 x="54.980469"
                 id="use276"
                 y="0"
                 width="100%"
                 height="100%" />
              <use
                 xlink:href="#DejaVuSans-6e"
                 x="116.16211"
                 id="use278"
                 y="0"
                 width="100%"
                 height="100%" />
              <use
                 xlink:href="#DejaVuSans-73"
                 x="179.54102"
                 id="use280"
                 y="0"
                 width="100%"
                 height="100%" />
              <use
                 xlink:href="#DejaVuSans-75"
                 x="231.64062"
                 id="use282"
                 y="0"
                 width="100%"
                 height="100%" />
              <use
                 xlink:href="#DejaVuSans-6c"
                 x="295.01953"
                 id="use284"
                 y="0"
                 width="100%"
                 height="100%" />
              <use
                 xlink:href="#DejaVuSans-74"
                 x="322.80273"
                 id="use286"
                 y="0"
                 width="100%"
                 height="100%" />
              <use
                 xlink:href="#DejaVuSans-61"
                 x="362.01172"
                 id="use288"
                 y="0"
                 width="100%"
                 height="100%" />
              <use
                 xlink:href="#DejaVuSans-74"
                 x="423.29102"
                 id="use290"
                 y="0"
                 width="100%"
                 height="100%" />
              <use
                 xlink:href="#DejaVuSans-69"
                 x="462.5"
                 id="use292"
                 y="0"
                 width="100%"
                 height="100%" />
              <use
                 xlink:href="#DejaVuSans-6f"
                 x="490.2832"
                 id="use294"
                 y="0"
                 width="100%"
                 height="100%" />
              <use
                 xlink:href="#DejaVuSans-6e"
                 x="551.46484"
                 id="use296"
                 y="0"
                 width="100%"
                 height="100%" />
              <use
                 xlink:href="#DejaVuSans-4d"
                 x="614.84375"
                 id="use298"
                 y="0"
                 width="100%"
                 height="100%" />
              <use
                 xlink:href="#DejaVuSans-65"
                 x="701.12305"
                 id="use300"
                 y="0"
                 width="100%"
                 height="100%" />
              <use
                 xlink:href="#DejaVuSans-64"
                 x="762.64648"
                 id="use302"
                 y="0"
                 width="100%"
                 height="100%" />
              <use
                 xlink:href="#DejaVuSans-69"
                 x="826.12305"
                 id="use304"
                 y="0"
                 width="100%"
                 height="100%" />
              <use
                 xlink:href="#DejaVuSans-61"
                 x="853.90625"
                 id="use306"
                 y="0"
                 width="100%"
                 height="100%" />
            </g>
          </g>
        </g>
        <g
           id="ytick_6">
          <g
             id="line2d_13">
            <g
               id="g314">
              <use
                 xlink:href="#maf780de1cb"
                 x="54"
                 y="81.154289"
                 style="stroke:#000000;stroke-width:0.8"
                 id="use312"
                 width="100%"
                 height="100%" />
            </g>
          </g>
          <g
             id="text_13">
            <!-- speciality -->
            <g
               transform="matrix(0.1,0,0,-0.1,-0.510938,84.953504)"
               id="g337">
              <use
                 xlink:href="#DejaVuSans-73"
                 id="use317"
                 x="0"
                 y="0"
                 width="100%"
                 height="100%" />
              <use
                 xlink:href="#DejaVuSans-70"
                 x="52.099609"
                 id="use319"
                 y="0"
                 width="100%"
                 height="100%" />
              <use
                 xlink:href="#DejaVuSans-65"
                 x="115.57617"
                 id="use321"
                 y="0"
                 width="100%"
                 height="100%" />
              <use
                 xlink:href="#DejaVuSans-63"
                 x="177.09961"
                 id="use323"
                 y="0"
                 width="100%"
                 height="100%" />
              <use
                 xlink:href="#DejaVuSans-69"
                 x="232.08008"
                 id="use325"
                 y="0"
                 width="100%"
                 height="100%" />
              <use
                 xlink:href="#DejaVuSans-61"
                 x="259.86328"
                 id="use327"
                 y="0"
                 width="100%"
                 height="100%" />
              <use
                 xlink:href="#DejaVuSans-6c"
                 x="321.14258"
                 id="use329"
                 y="0"
                 width="100%"
                 height="100%" />
              <use
                 xlink:href="#DejaVuSans-69"
                 x="348.92578"
                 id="use331"
                 y="0"
                 width="100%"
                 height="100%" />
              <use
                 xlink:href="#DejaVuSans-74"
                 x="376.70898"
                 id="use333"
                 y="0"
                 width="100%"
                 height="100%" />
              <use
                 xlink:href="#DejaVuSans-79"
                 x="415.91797"
                 id="use335"
                 y="0"
                 width="100%"
                 height="100%" />
            </g>
          </g>
        </g>
        <g
           id="ytick_7">
          <g
             id="line2d_14">
            <g
               id="g343">
              <use
                 xlink:href="#maf780de1cb"
                 x="54"
                 y="50.091431"
                 style="stroke:#000000;stroke-width:0.8"
                 id="use341"
                 width="100%"
                 height="100%" />
            </g>
          </g>
          <g
             id="text_14">
            <!-- site -->
            <g
               transform="matrix(0.1,0,0,-0.1,28.939062,53.890647)"
               id="g354">
              <use
                 xlink:href="#DejaVuSans-73"
                 id="use346"
                 x="0"
                 y="0"
                 width="100%"
                 height="100%" />
              <use
                 xlink:href="#DejaVuSans-69"
                 x="52.099609"
                 id="use348"
                 y="0"
                 width="100%"
                 height="100%" />
              <use
                 xlink:href="#DejaVuSans-74"
                 x="79.882812"
                 id="use350"
                 y="0"
                 width="100%"
                 height="100%" />
              <use
                 xlink:href="#DejaVuSans-65"
                 x="119.0918"
                 id="use352"
                 y="0"
                 width="100%"
                 height="100%" />
            </g>
          </g>
        </g>
      </g>
      <g
         id="patch_10">
        <path
           d="M 54,252 V 34.56"
           style="fill:none;stroke:#000000;stroke-width:0.8;stroke-linecap:square;stroke-linejoin:miter"
           id="path359" />
      </g>
      <g
         id="patch_11">
        <path
           d="M 388.8,252 V 34.56"
           style="fill:none;stroke:#000000;stroke-width:0.8;stroke-linecap:square;stroke-linejoin:miter"
           id="path362" />
      </g>
      <g
         id="patch_12">
        <path
           d="M 54,252 H 388.8"
           style="fill:none;stroke:#000000;stroke-width:0.8;stroke-linecap:square;stroke-linejoin:miter"
           id="path365" />
      </g>
      <g
         id="patch_13">
        <path
           d="M 54,34.56 H 388.8"
           style="fill:none;stroke:#000000;stroke-width:0.8;stroke-linecap:square;stroke-linejoin:miter"
           id="path368" />
      </g>
    </g>
  </g>
  <defs
     id="defs376">
    <clipPath
       id="pb81d69a211">
      <rect
         x="54"
         y="34.560001"
         width="334.79999"
         height="217.44"
         id="rect373" />
    </clipPath>
  </defs>
</svg>
